<mxfile host="app.diagrams.net" modified="2024-04-25T06:48:20.802Z" agent="Mozilla/5.0 (Windows NT 10.0; Win64; x64; rv:125.0) Gecko/20100101 Firefox/125.0" etag="88YmVRrWxQHMYtcTkp2V" version="24.2.9" type="device" pages="2">
  <diagram id="prtHgNgQTEPvFCAcTncT" name="Utilisation de l&#39;application">
    <mxGraphModel dx="2314" dy="792" grid="1" gridSize="10" guides="1" tooltips="1" connect="1" arrows="1" fold="1" page="1" pageScale="1" pageWidth="827" pageHeight="1169" math="0" shadow="0">
      <root>
        <mxCell id="0" />
        <mxCell id="1" parent="0" />
        <mxCell id="dNxyNK7c78bLwvsdeMH5-19" value="Utilisateur" style="swimlane;html=1;childLayout=stackLayout;resizeParent=1;resizeParentMax=0;horizontal=0;startSize=20;horizontalStack=0;fillColor=#93bfb7;" parent="1" vertex="1">
          <mxGeometry x="70" y="39" width="1470" height="170" as="geometry" />
        </mxCell>
        <mxCell id="dNxyNK7c78bLwvsdeMH5-20" value="Navigateur" style="swimlane;html=1;startSize=20;horizontal=0;fillColor=#93bfb7;" parent="dNxyNK7c78bLwvsdeMH5-19" vertex="1">
          <mxGeometry x="20" width="1450" height="170" as="geometry" />
        </mxCell>
        <mxCell id="qhhqupfQZyrAYyY_Bkdy-48" value="Commande X produit(s)" style="rounded=0;whiteSpace=wrap;html=1;fontFamily=Helvetica;fontSize=12;fontColor=#000000;align=center;" parent="dNxyNK7c78bLwvsdeMH5-20" vertex="1">
          <mxGeometry x="284" y="30" width="80" height="60" as="geometry" />
        </mxCell>
        <mxCell id="dNxyNK7c78bLwvsdeMH5-23" value="Depart" style="ellipse;whiteSpace=wrap;html=1;" parent="dNxyNK7c78bLwvsdeMH5-20" vertex="1">
          <mxGeometry x="60" y="40" width="40" height="40" as="geometry" />
        </mxCell>
        <mxCell id="eh8Jz-UBKYxob1HKyFLW-2" value="Consulte les produits" style="rounded=0;whiteSpace=wrap;html=1;fontFamily=Helvetica;fontSize=12;fontColor=#000000;align=center;" parent="dNxyNK7c78bLwvsdeMH5-20" vertex="1">
          <mxGeometry x="150" y="30" width="80" height="60" as="geometry" />
        </mxCell>
        <mxCell id="eh8Jz-UBKYxob1HKyFLW-4" style="edgeStyle=orthogonalEdgeStyle;rounded=0;orthogonalLoop=1;jettySize=auto;html=1;entryX=0;entryY=0.5;entryDx=0;entryDy=0;exitX=1;exitY=0.5;exitDx=0;exitDy=0;" parent="dNxyNK7c78bLwvsdeMH5-20" source="eh8Jz-UBKYxob1HKyFLW-2" target="qhhqupfQZyrAYyY_Bkdy-48" edge="1">
          <mxGeometry relative="1" as="geometry">
            <mxPoint x="280" y="310" as="sourcePoint" />
            <mxPoint x="280" y="220" as="targetPoint" />
          </mxGeometry>
        </mxCell>
        <mxCell id="m7fyitP-7A23Kn7Wmupg-9" style="edgeStyle=orthogonalEdgeStyle;rounded=0;orthogonalLoop=1;jettySize=auto;html=1;entryX=0;entryY=0.5;entryDx=0;entryDy=0;" edge="1" parent="dNxyNK7c78bLwvsdeMH5-20" source="eh8Jz-UBKYxob1HKyFLW-21" target="m7fyitP-7A23Kn7Wmupg-8">
          <mxGeometry relative="1" as="geometry" />
        </mxCell>
        <mxCell id="eh8Jz-UBKYxob1HKyFLW-21" value="Saisie ses coordonées" style="rounded=0;whiteSpace=wrap;html=1;fontFamily=Helvetica;fontSize=12;fontColor=#000000;align=center;" parent="dNxyNK7c78bLwvsdeMH5-20" vertex="1">
          <mxGeometry x="657" y="30" width="80" height="60" as="geometry" />
        </mxCell>
        <mxCell id="eh8Jz-UBKYxob1HKyFLW-9" value="Se connecte" style="rounded=0;whiteSpace=wrap;html=1;fontFamily=Helvetica;fontSize=12;fontColor=#000000;align=center;" parent="dNxyNK7c78bLwvsdeMH5-20" vertex="1">
          <mxGeometry x="470" y="30" width="80" height="60" as="geometry" />
        </mxCell>
        <mxCell id="m7fyitP-7A23Kn7Wmupg-8" value="" style="rhombus;whiteSpace=wrap;html=1;" vertex="1" parent="dNxyNK7c78bLwvsdeMH5-20">
          <mxGeometry x="780" y="45" width="30" height="30" as="geometry" />
        </mxCell>
        <mxCell id="m7fyitP-7A23Kn7Wmupg-13" style="edgeStyle=orthogonalEdgeStyle;rounded=0;orthogonalLoop=1;jettySize=auto;html=1;entryX=1;entryY=0.5;entryDx=0;entryDy=0;" edge="1" parent="dNxyNK7c78bLwvsdeMH5-20" source="m7fyitP-7A23Kn7Wmupg-11" target="m7fyitP-7A23Kn7Wmupg-8">
          <mxGeometry relative="1" as="geometry" />
        </mxCell>
        <mxCell id="m7fyitP-7A23Kn7Wmupg-11" value="Corrige ses erreurs" style="rounded=0;whiteSpace=wrap;html=1;fontFamily=Helvetica;fontSize=12;fontColor=#000000;align=center;" vertex="1" parent="dNxyNK7c78bLwvsdeMH5-20">
          <mxGeometry x="855" y="30" width="80" height="60" as="geometry" />
        </mxCell>
        <mxCell id="m7fyitP-7A23Kn7Wmupg-21" style="edgeStyle=orthogonalEdgeStyle;rounded=0;orthogonalLoop=1;jettySize=auto;html=1;entryX=0;entryY=0.5;entryDx=0;entryDy=0;" edge="1" parent="dNxyNK7c78bLwvsdeMH5-20" source="m7fyitP-7A23Kn7Wmupg-18" target="m7fyitP-7A23Kn7Wmupg-20">
          <mxGeometry relative="1" as="geometry" />
        </mxCell>
        <mxCell id="m7fyitP-7A23Kn7Wmupg-18" value="Afficher page de validation" style="rounded=0;whiteSpace=wrap;html=1;fontFamily=Helvetica;fontSize=12;fontColor=#000000;align=center;" vertex="1" parent="dNxyNK7c78bLwvsdeMH5-20">
          <mxGeometry x="990" y="30" width="80" height="60" as="geometry" />
        </mxCell>
        <mxCell id="m7fyitP-7A23Kn7Wmupg-20" value="" style="rhombus;whiteSpace=wrap;html=1;" vertex="1" parent="dNxyNK7c78bLwvsdeMH5-20">
          <mxGeometry x="1136" y="60" width="30" height="30" as="geometry" />
        </mxCell>
        <mxCell id="qhhqupfQZyrAYyY_Bkdy-61" value="&lt;font color=&quot;#e4f2e7&quot;&gt;Vois la confiration et est remercié&lt;br&gt;&lt;/font&gt;" style="ellipse;whiteSpace=wrap;html=1;fillColor=#2d3e40;" parent="dNxyNK7c78bLwvsdeMH5-20" vertex="1">
          <mxGeometry x="1354" y="20" width="80" height="80" as="geometry" />
        </mxCell>
        <mxCell id="qhhqupfQZyrAYyY_Bkdy-10" value="Leeroy informatique" style="swimlane;html=1;childLayout=stackLayout;resizeParent=1;resizeParentMax=0;horizontal=0;startSize=20;horizontalStack=0;fillColor=#97a6a0;" parent="1" vertex="1">
          <mxGeometry x="70" y="209" width="1470" height="460" as="geometry" />
        </mxCell>
        <mxCell id="qhhqupfQZyrAYyY_Bkdy-1" value="&lt;div&gt;Vue&lt;/div&gt;" style="swimlane;html=1;startSize=20;horizontal=0;fillColor=#97A6A0;" parent="qhhqupfQZyrAYyY_Bkdy-10" vertex="1">
          <mxGeometry x="20" width="1450" height="120" as="geometry" />
        </mxCell>
        <mxCell id="qhhqupfQZyrAYyY_Bkdy-46" value="Affiche les produits disponible en HTML" style="rounded=0;whiteSpace=wrap;html=1;fontFamily=Helvetica;fontSize=12;fontColor=#000000;align=center;" parent="qhhqupfQZyrAYyY_Bkdy-1" vertex="1">
          <mxGeometry x="150" y="30" width="80" height="60" as="geometry" />
        </mxCell>
        <mxCell id="eh8Jz-UBKYxob1HKyFLW-23" value="Affiche formulaire client" style="rounded=0;whiteSpace=wrap;html=1;fontFamily=Helvetica;fontSize=12;fontColor=#000000;align=center;" parent="qhhqupfQZyrAYyY_Bkdy-1" vertex="1">
          <mxGeometry x="657" y="30" width="80" height="60" as="geometry" />
        </mxCell>
        <mxCell id="C883Q7lBeglxTVEXpG0W-10" value="Affiche la page de connexion" style="rounded=0;whiteSpace=wrap;html=1;fontFamily=Helvetica;fontSize=12;fontColor=#000000;align=center;" vertex="1" parent="qhhqupfQZyrAYyY_Bkdy-1">
          <mxGeometry x="549" y="30" width="80" height="60" as="geometry" />
        </mxCell>
        <mxCell id="m7fyitP-7A23Kn7Wmupg-2" value="Ré-affiche le formulaire avec l&#39;erreur" style="rounded=0;whiteSpace=wrap;html=1;fontFamily=Helvetica;fontSize=12;fontColor=#000000;align=center;" vertex="1" parent="qhhqupfQZyrAYyY_Bkdy-1">
          <mxGeometry x="855" y="30" width="80" height="60" as="geometry" />
        </mxCell>
        <mxCell id="m7fyitP-7A23Kn7Wmupg-15" value="Afficher page de validation" style="rounded=0;whiteSpace=wrap;html=1;fontFamily=Helvetica;fontSize=12;fontColor=#000000;align=center;" vertex="1" parent="qhhqupfQZyrAYyY_Bkdy-1">
          <mxGeometry x="990" y="30" width="80" height="60" as="geometry" />
        </mxCell>
        <mxCell id="qhhqupfQZyrAYyY_Bkdy-11" value="Controller" style="swimlane;html=1;startSize=20;horizontal=0;fillColor=#97A6A0;" parent="qhhqupfQZyrAYyY_Bkdy-10" vertex="1">
          <mxGeometry x="20" y="120" width="1450" height="220" as="geometry" />
        </mxCell>
        <mxCell id="qhhqupfQZyrAYyY_Bkdy-43" value="Convertit objet en tableau" style="rounded=0;whiteSpace=wrap;html=1;fontFamily=Helvetica;fontSize=12;fontColor=#000000;align=center;" parent="qhhqupfQZyrAYyY_Bkdy-11" vertex="1">
          <mxGeometry x="150" y="60" width="80" height="60" as="geometry" />
        </mxCell>
        <mxCell id="m7fyitP-7A23Kn7Wmupg-4" style="edgeStyle=orthogonalEdgeStyle;rounded=0;orthogonalLoop=1;jettySize=auto;html=1;entryX=0;entryY=0.5;entryDx=0;entryDy=0;" edge="1" parent="qhhqupfQZyrAYyY_Bkdy-11" source="qhhqupfQZyrAYyY_Bkdy-151" target="m7fyitP-7A23Kn7Wmupg-3">
          <mxGeometry relative="1" as="geometry" />
        </mxCell>
        <mxCell id="qhhqupfQZyrAYyY_Bkdy-151" value="Controle la conformitée" style="rounded=0;whiteSpace=wrap;html=1;fontFamily=Helvetica;fontSize=12;fontColor=#000000;align=center;" parent="qhhqupfQZyrAYyY_Bkdy-11" vertex="1">
          <mxGeometry x="755" y="50" width="80" height="60" as="geometry" />
        </mxCell>
        <mxCell id="C883Q7lBeglxTVEXpG0W-5" style="edgeStyle=orthogonalEdgeStyle;rounded=0;orthogonalLoop=1;jettySize=auto;html=1;entryX=0;entryY=0.5;entryDx=0;entryDy=0;" edge="1" parent="qhhqupfQZyrAYyY_Bkdy-11" source="eh8Jz-UBKYxob1HKyFLW-19" target="C883Q7lBeglxTVEXpG0W-4">
          <mxGeometry relative="1" as="geometry" />
        </mxCell>
        <mxCell id="eh8Jz-UBKYxob1HKyFLW-19" value="Enregistre le panier" style="rounded=0;whiteSpace=wrap;html=1;fontFamily=Helvetica;fontSize=12;fontColor=#000000;align=center;" parent="qhhqupfQZyrAYyY_Bkdy-11" vertex="1">
          <mxGeometry x="284" y="50" width="80" height="60" as="geometry" />
        </mxCell>
        <mxCell id="C883Q7lBeglxTVEXpG0W-1" value="Envoyer une requête" style="rounded=0;whiteSpace=wrap;html=1;fontFamily=Helvetica;fontSize=12;fontColor=#000000;align=center;" vertex="1" parent="qhhqupfQZyrAYyY_Bkdy-11">
          <mxGeometry x="40" y="60" width="80" height="60" as="geometry" />
        </mxCell>
        <mxCell id="C883Q7lBeglxTVEXpG0W-7" style="edgeStyle=orthogonalEdgeStyle;rounded=0;orthogonalLoop=1;jettySize=auto;html=1;entryX=0;entryY=0.5;entryDx=0;entryDy=0;" edge="1" parent="qhhqupfQZyrAYyY_Bkdy-11" source="C883Q7lBeglxTVEXpG0W-4" target="C883Q7lBeglxTVEXpG0W-6">
          <mxGeometry relative="1" as="geometry" />
        </mxCell>
        <mxCell id="C883Q7lBeglxTVEXpG0W-4" value="Vérifie si l&#39;utilisateur est connecté" style="rounded=0;whiteSpace=wrap;html=1;fontFamily=Helvetica;fontSize=12;fontColor=#000000;align=center;" vertex="1" parent="qhhqupfQZyrAYyY_Bkdy-11">
          <mxGeometry x="435" y="50" width="80" height="60" as="geometry" />
        </mxCell>
        <mxCell id="C883Q7lBeglxTVEXpG0W-6" value="" style="rhombus;whiteSpace=wrap;html=1;" vertex="1" parent="qhhqupfQZyrAYyY_Bkdy-11">
          <mxGeometry x="574" y="65" width="30" height="30" as="geometry" />
        </mxCell>
        <mxCell id="m7fyitP-7A23Kn7Wmupg-3" value="" style="rhombus;whiteSpace=wrap;html=1;" vertex="1" parent="qhhqupfQZyrAYyY_Bkdy-11">
          <mxGeometry x="880" y="65" width="30" height="30" as="geometry" />
        </mxCell>
        <mxCell id="m7fyitP-7A23Kn7Wmupg-22" value="Enregistrer la commande" style="rounded=0;whiteSpace=wrap;html=1;fontFamily=Helvetica;fontSize=12;fontColor=#000000;align=center;" vertex="1" parent="qhhqupfQZyrAYyY_Bkdy-11">
          <mxGeometry x="1240" y="60" width="80" height="60" as="geometry" />
        </mxCell>
        <mxCell id="m7fyitP-7A23Kn7Wmupg-26" value="Efface le panier" style="rounded=0;whiteSpace=wrap;html=1;fontFamily=Helvetica;fontSize=12;fontColor=#000000;align=center;" vertex="1" parent="qhhqupfQZyrAYyY_Bkdy-11">
          <mxGeometry x="1111" y="70" width="80" height="60" as="geometry" />
        </mxCell>
        <mxCell id="qhhqupfQZyrAYyY_Bkdy-37" style="edgeStyle=orthogonalEdgeStyle;rounded=0;orthogonalLoop=1;jettySize=auto;html=1;exitX=0;exitY=0.25;exitDx=0;exitDy=0;entryX=0;entryY=0.333;entryDx=0;entryDy=0;entryPerimeter=0;" parent="qhhqupfQZyrAYyY_Bkdy-10" source="qhhqupfQZyrAYyY_Bkdy-11" target="qhhqupfQZyrAYyY_Bkdy-11" edge="1">
          <mxGeometry relative="1" as="geometry" />
        </mxCell>
        <mxCell id="qhhqupfQZyrAYyY_Bkdy-15" value="Models" style="swimlane;html=1;startSize=20;horizontal=0;fillColor=#97A6A0;" parent="qhhqupfQZyrAYyY_Bkdy-10" vertex="1">
          <mxGeometry x="20" y="340" width="1450" height="120" as="geometry" />
        </mxCell>
        <mxCell id="qhhqupfQZyrAYyY_Bkdy-40" value="Prépare les produits sous forme d&#39;un objet" style="rounded=0;whiteSpace=wrap;html=1;fontFamily=Helvetica;fontSize=12;fontColor=#000000;align=center;" parent="qhhqupfQZyrAYyY_Bkdy-15" vertex="1">
          <mxGeometry x="150" y="30" width="80" height="60" as="geometry" />
        </mxCell>
        <mxCell id="qhhqupfQZyrAYyY_Bkdy-44" value="" style="edgeStyle=orthogonalEdgeStyle;rounded=0;orthogonalLoop=1;jettySize=auto;html=1;" parent="qhhqupfQZyrAYyY_Bkdy-10" source="qhhqupfQZyrAYyY_Bkdy-40" target="qhhqupfQZyrAYyY_Bkdy-43" edge="1">
          <mxGeometry relative="1" as="geometry" />
        </mxCell>
        <mxCell id="qhhqupfQZyrAYyY_Bkdy-47" style="edgeStyle=orthogonalEdgeStyle;rounded=0;orthogonalLoop=1;jettySize=auto;html=1;entryX=0.5;entryY=1;entryDx=0;entryDy=0;" parent="qhhqupfQZyrAYyY_Bkdy-10" source="qhhqupfQZyrAYyY_Bkdy-43" target="qhhqupfQZyrAYyY_Bkdy-46" edge="1">
          <mxGeometry relative="1" as="geometry" />
        </mxCell>
        <mxCell id="C883Q7lBeglxTVEXpG0W-8" style="edgeStyle=orthogonalEdgeStyle;rounded=0;orthogonalLoop=1;jettySize=auto;html=1;entryX=0.5;entryY=1;entryDx=0;entryDy=0;" edge="1" parent="qhhqupfQZyrAYyY_Bkdy-10" source="C883Q7lBeglxTVEXpG0W-6" target="eh8Jz-UBKYxob1HKyFLW-23">
          <mxGeometry relative="1" as="geometry" />
        </mxCell>
        <mxCell id="C883Q7lBeglxTVEXpG0W-9" value="Connecté" style="edgeLabel;html=1;align=center;verticalAlign=middle;resizable=0;points=[];" vertex="1" connectable="0" parent="C883Q7lBeglxTVEXpG0W-8">
          <mxGeometry x="-0.3103" y="-1" relative="1" as="geometry">
            <mxPoint x="-8" y="-12" as="offset" />
          </mxGeometry>
        </mxCell>
        <mxCell id="C883Q7lBeglxTVEXpG0W-11" style="edgeStyle=orthogonalEdgeStyle;rounded=0;orthogonalLoop=1;jettySize=auto;html=1;entryX=0.5;entryY=1;entryDx=0;entryDy=0;" edge="1" parent="qhhqupfQZyrAYyY_Bkdy-10" source="C883Q7lBeglxTVEXpG0W-6" target="C883Q7lBeglxTVEXpG0W-10">
          <mxGeometry relative="1" as="geometry" />
        </mxCell>
        <mxCell id="C883Q7lBeglxTVEXpG0W-12" value="Non connecté" style="edgeLabel;html=1;align=center;verticalAlign=middle;resizable=0;points=[];" vertex="1" connectable="0" parent="C883Q7lBeglxTVEXpG0W-11">
          <mxGeometry x="-0.1579" relative="1" as="geometry">
            <mxPoint as="offset" />
          </mxGeometry>
        </mxCell>
        <mxCell id="m7fyitP-7A23Kn7Wmupg-7" style="edgeStyle=orthogonalEdgeStyle;rounded=0;orthogonalLoop=1;jettySize=auto;html=1;entryX=0.5;entryY=1;entryDx=0;entryDy=0;" edge="1" parent="qhhqupfQZyrAYyY_Bkdy-10" source="m7fyitP-7A23Kn7Wmupg-3" target="m7fyitP-7A23Kn7Wmupg-2">
          <mxGeometry relative="1" as="geometry" />
        </mxCell>
        <mxCell id="m7fyitP-7A23Kn7Wmupg-14" value="Non conforme" style="edgeLabel;html=1;align=center;verticalAlign=middle;resizable=0;points=[];" vertex="1" connectable="0" parent="m7fyitP-7A23Kn7Wmupg-7">
          <mxGeometry x="-0.2" relative="1" as="geometry">
            <mxPoint as="offset" />
          </mxGeometry>
        </mxCell>
        <mxCell id="m7fyitP-7A23Kn7Wmupg-16" style="edgeStyle=orthogonalEdgeStyle;rounded=0;orthogonalLoop=1;jettySize=auto;html=1;entryX=0.5;entryY=1;entryDx=0;entryDy=0;" edge="1" parent="qhhqupfQZyrAYyY_Bkdy-10" source="m7fyitP-7A23Kn7Wmupg-3" target="m7fyitP-7A23Kn7Wmupg-15">
          <mxGeometry relative="1" as="geometry" />
        </mxCell>
        <mxCell id="m7fyitP-7A23Kn7Wmupg-17" value="Conforme" style="edgeLabel;html=1;align=center;verticalAlign=middle;resizable=0;points=[];" vertex="1" connectable="0" parent="m7fyitP-7A23Kn7Wmupg-16">
          <mxGeometry x="-0.3826" relative="1" as="geometry">
            <mxPoint as="offset" />
          </mxGeometry>
        </mxCell>
        <mxCell id="qhhqupfQZyrAYyY_Bkdy-22" value="Base de données" style="swimlane;html=1;childLayout=stackLayout;resizeParent=1;resizeParentMax=0;horizontal=0;startSize=20;horizontalStack=0;fillColor=#e4f2e7;" parent="1" vertex="1">
          <mxGeometry x="70" y="669" width="1470" height="140" as="geometry" />
        </mxCell>
        <mxCell id="qhhqupfQZyrAYyY_Bkdy-30" value="SGBD" style="swimlane;html=1;startSize=20;horizontal=0;fillColor=#E4F2E7;" parent="qhhqupfQZyrAYyY_Bkdy-22" vertex="1">
          <mxGeometry x="20" width="1450" height="140" as="geometry" />
        </mxCell>
        <mxCell id="m7fyitP-7A23Kn7Wmupg-32" style="edgeStyle=orthogonalEdgeStyle;rounded=0;orthogonalLoop=1;jettySize=auto;html=1;entryX=0;entryY=0.5;entryDx=0;entryDy=0;" edge="1" parent="qhhqupfQZyrAYyY_Bkdy-30" source="qhhqupfQZyrAYyY_Bkdy-38" target="m7fyitP-7A23Kn7Wmupg-31">
          <mxGeometry relative="1" as="geometry" />
        </mxCell>
        <mxCell id="qhhqupfQZyrAYyY_Bkdy-38" value="Récupère les produits disponibles" style="rounded=0;whiteSpace=wrap;html=1;fontFamily=Helvetica;fontSize=12;fontColor=#000000;align=center;" parent="qhhqupfQZyrAYyY_Bkdy-30" vertex="1">
          <mxGeometry x="40" y="30" width="80" height="60" as="geometry" />
        </mxCell>
        <mxCell id="m7fyitP-7A23Kn7Wmupg-31" value="" style="rhombus;whiteSpace=wrap;html=1;" vertex="1" parent="qhhqupfQZyrAYyY_Bkdy-30">
          <mxGeometry x="175" y="45" width="30" height="30" as="geometry" />
        </mxCell>
        <mxCell id="eh8Jz-UBKYxob1HKyFLW-18" style="edgeStyle=orthogonalEdgeStyle;rounded=0;orthogonalLoop=1;jettySize=auto;html=1;entryX=0.5;entryY=1;entryDx=0;entryDy=0;" parent="1" source="qhhqupfQZyrAYyY_Bkdy-46" target="eh8Jz-UBKYxob1HKyFLW-2" edge="1">
          <mxGeometry relative="1" as="geometry" />
        </mxCell>
        <mxCell id="eh8Jz-UBKYxob1HKyFLW-20" style="edgeStyle=orthogonalEdgeStyle;rounded=0;orthogonalLoop=1;jettySize=auto;html=1;" parent="1" source="qhhqupfQZyrAYyY_Bkdy-48" target="eh8Jz-UBKYxob1HKyFLW-19" edge="1">
          <mxGeometry relative="1" as="geometry" />
        </mxCell>
        <mxCell id="eh8Jz-UBKYxob1HKyFLW-25" style="edgeStyle=orthogonalEdgeStyle;rounded=0;orthogonalLoop=1;jettySize=auto;html=1;entryX=0.5;entryY=1;entryDx=0;entryDy=0;" parent="1" source="eh8Jz-UBKYxob1HKyFLW-23" target="eh8Jz-UBKYxob1HKyFLW-21" edge="1">
          <mxGeometry relative="1" as="geometry" />
        </mxCell>
        <mxCell id="C883Q7lBeglxTVEXpG0W-2" style="edgeStyle=orthogonalEdgeStyle;rounded=0;orthogonalLoop=1;jettySize=auto;html=1;" edge="1" parent="1" source="dNxyNK7c78bLwvsdeMH5-23" target="C883Q7lBeglxTVEXpG0W-1">
          <mxGeometry relative="1" as="geometry" />
        </mxCell>
        <mxCell id="C883Q7lBeglxTVEXpG0W-3" style="edgeStyle=orthogonalEdgeStyle;rounded=0;orthogonalLoop=1;jettySize=auto;html=1;entryX=0.5;entryY=0;entryDx=0;entryDy=0;" edge="1" parent="1" source="C883Q7lBeglxTVEXpG0W-1" target="qhhqupfQZyrAYyY_Bkdy-38">
          <mxGeometry relative="1" as="geometry" />
        </mxCell>
        <mxCell id="C883Q7lBeglxTVEXpG0W-13" style="edgeStyle=orthogonalEdgeStyle;rounded=0;orthogonalLoop=1;jettySize=auto;html=1;entryX=1;entryY=0.5;entryDx=0;entryDy=0;" edge="1" parent="1" source="C883Q7lBeglxTVEXpG0W-10" target="eh8Jz-UBKYxob1HKyFLW-9">
          <mxGeometry relative="1" as="geometry" />
        </mxCell>
        <mxCell id="m7fyitP-7A23Kn7Wmupg-1" style="edgeStyle=orthogonalEdgeStyle;rounded=0;orthogonalLoop=1;jettySize=auto;html=1;entryX=0.5;entryY=0;entryDx=0;entryDy=0;" edge="1" parent="1" source="eh8Jz-UBKYxob1HKyFLW-9" target="C883Q7lBeglxTVEXpG0W-4">
          <mxGeometry relative="1" as="geometry" />
        </mxCell>
        <mxCell id="m7fyitP-7A23Kn7Wmupg-10" style="edgeStyle=orthogonalEdgeStyle;rounded=0;orthogonalLoop=1;jettySize=auto;html=1;entryX=0.5;entryY=0;entryDx=0;entryDy=0;" edge="1" parent="1" source="m7fyitP-7A23Kn7Wmupg-8" target="qhhqupfQZyrAYyY_Bkdy-151">
          <mxGeometry relative="1" as="geometry" />
        </mxCell>
        <mxCell id="m7fyitP-7A23Kn7Wmupg-12" style="edgeStyle=orthogonalEdgeStyle;rounded=0;orthogonalLoop=1;jettySize=auto;html=1;entryX=0.5;entryY=1;entryDx=0;entryDy=0;" edge="1" parent="1" source="m7fyitP-7A23Kn7Wmupg-2" target="m7fyitP-7A23Kn7Wmupg-11">
          <mxGeometry relative="1" as="geometry" />
        </mxCell>
        <mxCell id="m7fyitP-7A23Kn7Wmupg-19" style="edgeStyle=orthogonalEdgeStyle;rounded=0;orthogonalLoop=1;jettySize=auto;html=1;entryX=0.5;entryY=1;entryDx=0;entryDy=0;" edge="1" parent="1" source="m7fyitP-7A23Kn7Wmupg-15" target="m7fyitP-7A23Kn7Wmupg-18">
          <mxGeometry relative="1" as="geometry" />
        </mxCell>
        <mxCell id="m7fyitP-7A23Kn7Wmupg-25" style="edgeStyle=orthogonalEdgeStyle;rounded=0;orthogonalLoop=1;jettySize=auto;html=1;entryX=0;entryY=0.5;entryDx=0;entryDy=0;" edge="1" parent="1" source="m7fyitP-7A23Kn7Wmupg-22" target="E7iw2AZNS1cUvOjSSK3e-2">
          <mxGeometry relative="1" as="geometry" />
        </mxCell>
        <mxCell id="m7fyitP-7A23Kn7Wmupg-27" style="edgeStyle=orthogonalEdgeStyle;rounded=0;orthogonalLoop=1;jettySize=auto;html=1;entryX=0.5;entryY=0;entryDx=0;entryDy=0;" edge="1" parent="1" source="m7fyitP-7A23Kn7Wmupg-20" target="m7fyitP-7A23Kn7Wmupg-26">
          <mxGeometry relative="1" as="geometry" />
        </mxCell>
        <mxCell id="m7fyitP-7A23Kn7Wmupg-28" value="Annule sa commande" style="edgeLabel;html=1;align=center;verticalAlign=middle;resizable=0;points=[];" vertex="1" connectable="0" parent="m7fyitP-7A23Kn7Wmupg-27">
          <mxGeometry x="-0.3455" relative="1" as="geometry">
            <mxPoint as="offset" />
          </mxGeometry>
        </mxCell>
        <mxCell id="m7fyitP-7A23Kn7Wmupg-33" style="edgeStyle=orthogonalEdgeStyle;rounded=0;orthogonalLoop=1;jettySize=auto;html=1;entryX=0.5;entryY=1;entryDx=0;entryDy=0;" edge="1" parent="1" source="m7fyitP-7A23Kn7Wmupg-31" target="qhhqupfQZyrAYyY_Bkdy-40">
          <mxGeometry relative="1" as="geometry" />
        </mxCell>
        <mxCell id="m7fyitP-7A23Kn7Wmupg-34" style="edgeStyle=orthogonalEdgeStyle;rounded=0;orthogonalLoop=1;jettySize=auto;html=1;entryX=1;entryY=0.5;entryDx=0;entryDy=0;" edge="1" parent="1" source="m7fyitP-7A23Kn7Wmupg-26" target="m7fyitP-7A23Kn7Wmupg-31">
          <mxGeometry relative="1" as="geometry">
            <Array as="points">
              <mxPoint x="1241" y="729" />
            </Array>
          </mxGeometry>
        </mxCell>
        <mxCell id="m7fyitP-7A23Kn7Wmupg-35" style="edgeStyle=orthogonalEdgeStyle;rounded=0;orthogonalLoop=1;jettySize=auto;html=1;" edge="1" parent="1" source="m7fyitP-7A23Kn7Wmupg-20" target="m7fyitP-7A23Kn7Wmupg-22">
          <mxGeometry relative="1" as="geometry" />
        </mxCell>
        <mxCell id="qhhqupfQZyrAYyY_Bkdy-73" value="Génère la page de confirmation" style="rounded=0;whiteSpace=wrap;html=1;fontFamily=Helvetica;fontSize=12;fontColor=#000000;align=center;" parent="1" vertex="1">
          <mxGeometry x="1444" y="249" width="80" height="60" as="geometry" />
        </mxCell>
        <mxCell id="E7iw2AZNS1cUvOjSSK3e-2" value="" style="rhombus;whiteSpace=wrap;html=1;" parent="1" vertex="1">
          <mxGeometry x="1469" y="404" width="30" height="30" as="geometry" />
        </mxCell>
        <mxCell id="E7iw2AZNS1cUvOjSSK3e-4" style="edgeStyle=orthogonalEdgeStyle;rounded=0;orthogonalLoop=1;jettySize=auto;html=1;entryX=0.5;entryY=1;entryDx=0;entryDy=0;" parent="1" source="E7iw2AZNS1cUvOjSSK3e-2" target="qhhqupfQZyrAYyY_Bkdy-73" edge="1">
          <mxGeometry relative="1" as="geometry" />
        </mxCell>
        <mxCell id="qhhqupfQZyrAYyY_Bkdy-77" style="edgeStyle=orthogonalEdgeStyle;rounded=0;orthogonalLoop=1;jettySize=auto;html=1;entryX=0.5;entryY=1;entryDx=0;entryDy=0;" parent="1" source="qhhqupfQZyrAYyY_Bkdy-73" target="qhhqupfQZyrAYyY_Bkdy-61" edge="1">
          <mxGeometry relative="1" as="geometry">
            <mxPoint x="1094" y="259" as="targetPoint" />
          </mxGeometry>
        </mxCell>
        <mxCell id="qhhqupfQZyrAYyY_Bkdy-191" value="Créer une commande dans la base" style="ellipse;whiteSpace=wrap;html=1;" parent="1" vertex="1">
          <mxGeometry x="1444" y="699" width="80" height="80" as="geometry" />
        </mxCell>
        <mxCell id="E7iw2AZNS1cUvOjSSK3e-6" style="edgeStyle=orthogonalEdgeStyle;rounded=0;orthogonalLoop=1;jettySize=auto;html=1;entryX=0.5;entryY=0;entryDx=0;entryDy=0;" parent="1" source="E7iw2AZNS1cUvOjSSK3e-2" target="qhhqupfQZyrAYyY_Bkdy-191" edge="1">
          <mxGeometry relative="1" as="geometry" />
        </mxCell>
      </root>
    </mxGraphModel>
  </diagram>
  <diagram id="eIj0XuvaNej8OMP5Ok3q" name="Consultatiuon d&#39;une page">
    <mxGraphModel dx="2314" dy="792" grid="1" gridSize="10" guides="1" tooltips="1" connect="1" arrows="1" fold="1" page="1" pageScale="1" pageWidth="1169" pageHeight="827" math="0" shadow="0">
      <root>
        <mxCell id="0" />
        <mxCell id="1" parent="0" />
        <mxCell id="RHSSwKCzxG4m3-yYmO0F-1" value="Utilisateur" style="swimlane;html=1;childLayout=stackLayout;resizeParent=1;resizeParentMax=0;horizontal=0;startSize=20;horizontalStack=0;fillColor=#93bfb7;" parent="1" vertex="1">
          <mxGeometry x="70" y="10" width="970" height="120" as="geometry" />
        </mxCell>
        <mxCell id="RHSSwKCzxG4m3-yYmO0F-2" value="Navigateur" style="swimlane;html=1;startSize=20;horizontal=0;fillColor=#93bfb7;" parent="RHSSwKCzxG4m3-yYmO0F-1" vertex="1">
          <mxGeometry x="20" width="950" height="120" as="geometry" />
        </mxCell>
        <mxCell id="RHSSwKCzxG4m3-yYmO0F-3" value="&lt;font color=&quot;#e4f2e7&quot;&gt;Vois la page&lt;br&gt;&lt;/font&gt;" style="ellipse;whiteSpace=wrap;html=1;fillColor=#2d3e40;" parent="RHSSwKCzxG4m3-yYmO0F-2" vertex="1">
          <mxGeometry x="860" y="10" width="80" height="80" as="geometry" />
        </mxCell>
        <mxCell id="ifs91l7yXh02rl6kVWBK-6" style="edgeStyle=orthogonalEdgeStyle;rounded=0;orthogonalLoop=1;jettySize=auto;html=1;entryX=0;entryY=0.5;entryDx=0;entryDy=0;" edge="1" parent="RHSSwKCzxG4m3-yYmO0F-2" source="RHSSwKCzxG4m3-yYmO0F-6" target="ifs91l7yXh02rl6kVWBK-5">
          <mxGeometry relative="1" as="geometry" />
        </mxCell>
        <mxCell id="RHSSwKCzxG4m3-yYmO0F-6" value="Consulte une page" style="ellipse;whiteSpace=wrap;html=1;" parent="RHSSwKCzxG4m3-yYmO0F-2" vertex="1">
          <mxGeometry x="45" y="20" width="70" height="70" as="geometry" />
        </mxCell>
        <mxCell id="ifs91l7yXh02rl6kVWBK-23" style="edgeStyle=orthogonalEdgeStyle;rounded=0;orthogonalLoop=1;jettySize=auto;html=1;entryX=1;entryY=0.5;entryDx=0;entryDy=0;" edge="1" parent="RHSSwKCzxG4m3-yYmO0F-2" source="JWNAKSJ6hPtOCbzQG5Ka-30" target="ifs91l7yXh02rl6kVWBK-5">
          <mxGeometry relative="1" as="geometry" />
        </mxCell>
        <mxCell id="JWNAKSJ6hPtOCbzQG5Ka-30" value="Vois la page d&#39;erreur et le lien vers l&#39;accueil" style="rounded=0;whiteSpace=wrap;html=1;fontFamily=Helvetica;fontSize=12;fontColor=#000000;align=center;" parent="RHSSwKCzxG4m3-yYmO0F-2" vertex="1">
          <mxGeometry x="405" y="10" width="180" height="60" as="geometry" />
        </mxCell>
        <mxCell id="ifs91l7yXh02rl6kVWBK-5" value="" style="rhombus;whiteSpace=wrap;html=1;" vertex="1" parent="RHSSwKCzxG4m3-yYmO0F-2">
          <mxGeometry x="160" y="40" width="30" height="30" as="geometry" />
        </mxCell>
        <mxCell id="RHSSwKCzxG4m3-yYmO0F-13" value="Leeroy informatique" style="swimlane;html=1;childLayout=stackLayout;resizeParent=1;resizeParentMax=0;horizontal=0;startSize=20;horizontalStack=0;fillColor=#97a6a0;" parent="1" vertex="1">
          <mxGeometry x="70" y="130" width="970" height="460" as="geometry" />
        </mxCell>
        <mxCell id="RHSSwKCzxG4m3-yYmO0F-14" value="&lt;div&gt;Vue&lt;/div&gt;" style="swimlane;html=1;startSize=20;horizontal=0;fillColor=#97A6A0;" parent="RHSSwKCzxG4m3-yYmO0F-13" vertex="1">
          <mxGeometry x="20" width="950" height="120" as="geometry" />
        </mxCell>
        <mxCell id="ifs91l7yXh02rl6kVWBK-21" style="edgeStyle=orthogonalEdgeStyle;rounded=0;orthogonalLoop=1;jettySize=auto;html=1;entryX=0;entryY=0.5;entryDx=0;entryDy=0;" edge="1" parent="RHSSwKCzxG4m3-yYmO0F-14" source="JWNAKSJ6hPtOCbzQG5Ka-11" target="RHSSwKCzxG4m3-yYmO0F-23">
          <mxGeometry relative="1" as="geometry" />
        </mxCell>
        <mxCell id="JWNAKSJ6hPtOCbzQG5Ka-11" value="Créer vue page 404" style="rounded=0;whiteSpace=wrap;html=1;fontFamily=Helvetica;fontSize=12;fontColor=#000000;align=center;" parent="RHSSwKCzxG4m3-yYmO0F-14" vertex="1">
          <mxGeometry x="240" y="30" width="80" height="60" as="geometry" />
        </mxCell>
        <mxCell id="ifs91l7yXh02rl6kVWBK-22" style="edgeStyle=orthogonalEdgeStyle;rounded=0;orthogonalLoop=1;jettySize=auto;html=1;entryX=1;entryY=0.5;entryDx=0;entryDy=0;" edge="1" parent="RHSSwKCzxG4m3-yYmO0F-14" source="JWNAKSJ6hPtOCbzQG5Ka-23" target="RHSSwKCzxG4m3-yYmO0F-23">
          <mxGeometry relative="1" as="geometry" />
        </mxCell>
        <mxCell id="JWNAKSJ6hPtOCbzQG5Ka-23" value="Créer une page 403" style="rounded=0;whiteSpace=wrap;html=1;fontFamily=Helvetica;fontSize=12;fontColor=#000000;align=center;" parent="RHSSwKCzxG4m3-yYmO0F-14" vertex="1">
          <mxGeometry x="718" y="20" width="80" height="60" as="geometry" />
        </mxCell>
        <mxCell id="RHSSwKCzxG4m3-yYmO0F-23" value="" style="rhombus;whiteSpace=wrap;html=1;" parent="RHSSwKCzxG4m3-yYmO0F-14" vertex="1">
          <mxGeometry x="490" y="10" width="30" height="30" as="geometry" />
        </mxCell>
        <mxCell id="RHSSwKCzxG4m3-yYmO0F-18" value="Controller" style="swimlane;html=1;startSize=20;horizontal=0;fillColor=#97A6A0;" parent="RHSSwKCzxG4m3-yYmO0F-13" vertex="1">
          <mxGeometry x="20" y="120" width="950" height="220" as="geometry" />
        </mxCell>
        <mxCell id="ifs91l7yXh02rl6kVWBK-3" value="" style="edgeStyle=orthogonalEdgeStyle;rounded=0;orthogonalLoop=1;jettySize=auto;html=1;" edge="1" parent="RHSSwKCzxG4m3-yYmO0F-18" source="JWNAKSJ6hPtOCbzQG5Ka-5" target="JWNAKSJ6hPtOCbzQG5Ka-7">
          <mxGeometry relative="1" as="geometry" />
        </mxCell>
        <mxCell id="JWNAKSJ6hPtOCbzQG5Ka-5" value="Vérifie si existe" style="rounded=0;whiteSpace=wrap;html=1;fontFamily=Helvetica;fontSize=12;fontColor=#000000;align=center;" parent="RHSSwKCzxG4m3-yYmO0F-18" vertex="1">
          <mxGeometry x="40" y="24" width="80" height="60" as="geometry" />
        </mxCell>
        <mxCell id="JWNAKSJ6hPtOCbzQG5Ka-7" value="" style="rhombus;whiteSpace=wrap;html=1;" parent="RHSSwKCzxG4m3-yYmO0F-18" vertex="1">
          <mxGeometry x="65" y="110" width="30" height="30" as="geometry" />
        </mxCell>
        <mxCell id="ifs91l7yXh02rl6kVWBK-24" style="edgeStyle=orthogonalEdgeStyle;rounded=0;orthogonalLoop=1;jettySize=auto;html=1;entryX=0;entryY=0.5;entryDx=0;entryDy=0;" edge="1" parent="RHSSwKCzxG4m3-yYmO0F-18" source="JWNAKSJ6hPtOCbzQG5Ka-18" target="JWNAKSJ6hPtOCbzQG5Ka-20">
          <mxGeometry relative="1" as="geometry" />
        </mxCell>
        <mxCell id="JWNAKSJ6hPtOCbzQG5Ka-18" value="Vérifie les droits d&#39;accès" style="rounded=0;whiteSpace=wrap;html=1;fontFamily=Helvetica;fontSize=12;fontColor=#000000;align=center;" parent="RHSSwKCzxG4m3-yYmO0F-18" vertex="1">
          <mxGeometry x="455" y="55" width="80" height="60" as="geometry" />
        </mxCell>
        <mxCell id="JWNAKSJ6hPtOCbzQG5Ka-20" value="" style="rhombus;whiteSpace=wrap;html=1;" parent="RHSSwKCzxG4m3-yYmO0F-18" vertex="1">
          <mxGeometry x="743" y="55" width="30" height="30" as="geometry" />
        </mxCell>
        <mxCell id="RHSSwKCzxG4m3-yYmO0F-25" style="edgeStyle=orthogonalEdgeStyle;rounded=0;orthogonalLoop=1;jettySize=auto;html=1;exitX=0;exitY=0.25;exitDx=0;exitDy=0;entryX=0;entryY=0.333;entryDx=0;entryDy=0;entryPerimeter=0;" parent="RHSSwKCzxG4m3-yYmO0F-13" source="RHSSwKCzxG4m3-yYmO0F-18" target="RHSSwKCzxG4m3-yYmO0F-18" edge="1">
          <mxGeometry relative="1" as="geometry" />
        </mxCell>
        <mxCell id="RHSSwKCzxG4m3-yYmO0F-26" value="Models" style="swimlane;html=1;startSize=20;horizontal=0;fillColor=#97A6A0;" parent="RHSSwKCzxG4m3-yYmO0F-13" vertex="1">
          <mxGeometry x="20" y="340" width="950" height="120" as="geometry" />
        </mxCell>
        <mxCell id="ifs91l7yXh02rl6kVWBK-13" value="Créer l&#39;utilisateur avec ses droits" style="rounded=0;whiteSpace=wrap;html=1;fontFamily=Helvetica;fontSize=12;fontColor=#000000;align=center;" vertex="1" parent="RHSSwKCzxG4m3-yYmO0F-26">
          <mxGeometry x="455" y="20" width="80" height="60" as="geometry" />
        </mxCell>
        <mxCell id="JWNAKSJ6hPtOCbzQG5Ka-24" style="edgeStyle=orthogonalEdgeStyle;rounded=0;orthogonalLoop=1;jettySize=auto;html=1;entryX=0.5;entryY=1;entryDx=0;entryDy=0;" parent="RHSSwKCzxG4m3-yYmO0F-13" source="JWNAKSJ6hPtOCbzQG5Ka-20" target="JWNAKSJ6hPtOCbzQG5Ka-23" edge="1">
          <mxGeometry relative="1" as="geometry" />
        </mxCell>
        <mxCell id="JWNAKSJ6hPtOCbzQG5Ka-28" value="N&#39;a pas les droits" style="edgeLabel;html=1;align=center;verticalAlign=middle;resizable=0;points=[];" parent="JWNAKSJ6hPtOCbzQG5Ka-24" vertex="1" connectable="0">
          <mxGeometry x="-0.2211" y="-1" relative="1" as="geometry">
            <mxPoint as="offset" />
          </mxGeometry>
        </mxCell>
        <mxCell id="ifs91l7yXh02rl6kVWBK-8" style="edgeStyle=orthogonalEdgeStyle;rounded=0;orthogonalLoop=1;jettySize=auto;html=1;entryX=0.5;entryY=1;entryDx=0;entryDy=0;" edge="1" parent="RHSSwKCzxG4m3-yYmO0F-13" source="JWNAKSJ6hPtOCbzQG5Ka-7" target="JWNAKSJ6hPtOCbzQG5Ka-11">
          <mxGeometry relative="1" as="geometry" />
        </mxCell>
        <mxCell id="ifs91l7yXh02rl6kVWBK-9" value="Existe pas" style="edgeLabel;html=1;align=center;verticalAlign=middle;resizable=0;points=[];" vertex="1" connectable="0" parent="ifs91l7yXh02rl6kVWBK-8">
          <mxGeometry x="-0.7098" y="3" relative="1" as="geometry">
            <mxPoint as="offset" />
          </mxGeometry>
        </mxCell>
        <mxCell id="ifs91l7yXh02rl6kVWBK-17" style="edgeStyle=orthogonalEdgeStyle;rounded=0;orthogonalLoop=1;jettySize=auto;html=1;entryX=0.5;entryY=1;entryDx=0;entryDy=0;" edge="1" parent="RHSSwKCzxG4m3-yYmO0F-13" source="ifs91l7yXh02rl6kVWBK-13" target="JWNAKSJ6hPtOCbzQG5Ka-18">
          <mxGeometry relative="1" as="geometry" />
        </mxCell>
        <mxCell id="RHSSwKCzxG4m3-yYmO0F-32" value="Base de données" style="swimlane;html=1;childLayout=stackLayout;resizeParent=1;resizeParentMax=0;horizontal=0;startSize=20;horizontalStack=0;fillColor=#e4f2e7;" parent="1" vertex="1">
          <mxGeometry x="70" y="590" width="970" height="140" as="geometry" />
        </mxCell>
        <mxCell id="RHSSwKCzxG4m3-yYmO0F-33" value="SGBD" style="swimlane;html=1;startSize=20;horizontal=0;fillColor=#E4F2E7;" parent="RHSSwKCzxG4m3-yYmO0F-32" vertex="1">
          <mxGeometry x="20" width="950" height="140" as="geometry" />
        </mxCell>
        <mxCell id="RHSSwKCzxG4m3-yYmO0F-34" value="Récupère les droits d&#39;utilisateurs" style="rounded=0;whiteSpace=wrap;html=1;fontFamily=Helvetica;fontSize=12;fontColor=#000000;align=center;" parent="RHSSwKCzxG4m3-yYmO0F-33" vertex="1">
          <mxGeometry x="330" y="30" width="80" height="60" as="geometry" />
        </mxCell>
        <mxCell id="JWNAKSJ6hPtOCbzQG5Ka-27" style="edgeStyle=orthogonalEdgeStyle;rounded=0;orthogonalLoop=1;jettySize=auto;html=1;" parent="1" source="JWNAKSJ6hPtOCbzQG5Ka-20" target="RHSSwKCzxG4m3-yYmO0F-3" edge="1">
          <mxGeometry relative="1" as="geometry" />
        </mxCell>
        <mxCell id="JWNAKSJ6hPtOCbzQG5Ka-29" value="À les droits" style="edgeLabel;html=1;align=center;verticalAlign=middle;resizable=0;points=[];" parent="JWNAKSJ6hPtOCbzQG5Ka-27" vertex="1" connectable="0">
          <mxGeometry x="-0.6657" relative="1" as="geometry">
            <mxPoint as="offset" />
          </mxGeometry>
        </mxCell>
        <mxCell id="ifs91l7yXh02rl6kVWBK-7" style="edgeStyle=orthogonalEdgeStyle;rounded=0;orthogonalLoop=1;jettySize=auto;html=1;" edge="1" parent="1" source="ifs91l7yXh02rl6kVWBK-5" target="JWNAKSJ6hPtOCbzQG5Ka-5">
          <mxGeometry relative="1" as="geometry">
            <Array as="points">
              <mxPoint x="265" y="150" />
              <mxPoint x="170" y="150" />
            </Array>
          </mxGeometry>
        </mxCell>
        <mxCell id="ifs91l7yXh02rl6kVWBK-14" style="edgeStyle=orthogonalEdgeStyle;rounded=0;orthogonalLoop=1;jettySize=auto;html=1;entryX=0.5;entryY=1;entryDx=0;entryDy=0;" edge="1" parent="1" source="RHSSwKCzxG4m3-yYmO0F-34" target="ifs91l7yXh02rl6kVWBK-13">
          <mxGeometry relative="1" as="geometry" />
        </mxCell>
        <mxCell id="ifs91l7yXh02rl6kVWBK-15" style="edgeStyle=orthogonalEdgeStyle;rounded=0;orthogonalLoop=1;jettySize=auto;html=1;entryX=0.5;entryY=0;entryDx=0;entryDy=0;" edge="1" parent="1" source="JWNAKSJ6hPtOCbzQG5Ka-7" target="RHSSwKCzxG4m3-yYmO0F-34">
          <mxGeometry relative="1" as="geometry">
            <Array as="points">
              <mxPoint x="170" y="540" />
              <mxPoint x="460" y="540" />
            </Array>
          </mxGeometry>
        </mxCell>
        <mxCell id="ifs91l7yXh02rl6kVWBK-16" value="Existe" style="edgeLabel;html=1;align=center;verticalAlign=middle;resizable=0;points=[];" vertex="1" connectable="0" parent="ifs91l7yXh02rl6kVWBK-15">
          <mxGeometry x="-0.8423" y="-2" relative="1" as="geometry">
            <mxPoint as="offset" />
          </mxGeometry>
        </mxCell>
        <mxCell id="ifs91l7yXh02rl6kVWBK-20" style="edgeStyle=orthogonalEdgeStyle;rounded=0;orthogonalLoop=1;jettySize=auto;html=1;entryX=0.554;entryY=1.023;entryDx=0;entryDy=0;entryPerimeter=0;" edge="1" parent="1" source="RHSSwKCzxG4m3-yYmO0F-23" target="JWNAKSJ6hPtOCbzQG5Ka-30">
          <mxGeometry relative="1" as="geometry" />
        </mxCell>
      </root>
    </mxGraphModel>
  </diagram>
</mxfile>
